<?xml version="1.0" encoding="UTF-8" standalone="no"?>
<!-- Created for MapSVG plugin: http://mapsvg.com -->
<svg
   xmlns:mapsvg="http://mapsvg.com"
   xmlns:dc="http://purl.org/dc/elements/1.1/"
   xmlns:rdf="http://www.w3.org/1999/02/22-rdf-syntax-ns#"
   xmlns:svg="http://www.w3.org/2000/svg"
   xmlns="http://www.w3.org/2000/svg"
   mapsvg:geoViewBox="-5.181900 51.089515 9.560929 41.366975"
   width="1836" height="1752">
  
  <g transform="matrix(3 0 0 3 0 0)">
  <path d="M311.6641 141.36159L314.5841 141.40158L315.3641 144.02158L315.4041 145.51158L317.63412 145.13158L317.29413 146.31157L314.83414 145.57156L312.03415 146.44156L307.62415 144.20155L308.45413 142.88155L309.53412 143.51155L311.6641 141.36159z" stroke="none" fill="#000000" fill-rule="nonzero" 
     title="Ville de Paris"
     id="FR-75" />
 
   <path d="M309.98407 138.2116L312.21408 138.8116L311.6641 141.3616L309.5341 143.5116L308.4541 142.88159L307.6241 144.2016L312.03412 146.4416L310.9641 151.2816L310.0541 151.7216L309.53412 150.1216L307.8741 149.3616L306.3041 149.7816L304.97412 148.7816L304.23413 144.9416L304.93414 144.6316L304.40414 143.2216L305.26413 141.7016L306.6241 140.8216L309.98407 138.2116z" stroke="none" fill="#000000" fill-rule="nonzero" 
     title="Hauts-de-Seine"
     id="FR-92" />
  <path d="M321.14407 134.2916L321.88406 134.2316L322.44406 136.2416L321.63406 136.33159L323.31406 139.16159L322.61404 141.59158L321.48404 142.16159L322.51404 143.2116L322.07404 144.47159L322.98404 147.23158L320.40405 144.24158L315.36404 144.02158L314.58405 141.40158L311.66403 141.36159L312.21402 138.81158L309.984 138.21158L310.644 137.19157L312.194 137.74158L313.484 136.73158L316.52402 137.94159L318.634 137.02159L321.14407 134.2916z" stroke="none" fill="#000000" fill-rule="nonzero" 
     title="Seine-Saint-Denis"
     id="FR-93" />
   <path d="M315.36407 144.02159L320.40408 144.2416L322.98407 147.2316L322.64407 149.27159L323.76407 149.9616L322.57407 151.30159L322.02408 154.41159L320.93408 154.42159L319.65408 151.45158L315.48407 152.80159L313.76407 152.69159L313.62405 151.55159L312.02405 150.89159L310.96405 151.28159L312.03406 146.44159L314.83405 145.5716L317.29404 146.3116L317.63403 145.1316L315.40402 145.51161L315.36407 144.02159z" stroke="none" fill="#000000" fill-rule="nonzero"
     title="Val-de-Marne"
     id="FR-94" />
</g>
</svg>
